<svg width="24" height="24" viewBox="0 0 24 24" fill="none" xmlns="http://www.w3.org/2000/svg">
<path fill-rule="evenodd" clip-rule="evenodd" d="M10.4255 12.4439C10.4255 11.5846 11.1222 10.8879 11.9815 10.8879C12.8409 10.8879 13.5375 11.5846 13.5375 12.4439C13.5375 13.3033 12.8409 13.9999 11.9815 13.9999C11.5689 13.9999 11.1731 13.836 10.8813 13.5442C10.5895 13.2524 10.4255 12.8566 10.4255 12.4439V12.4439Z" stroke="#FF0000" stroke-width="1.5" stroke-linecap="round" stroke-linejoin="round"/>
<path d="M8.36659 16.1114C8.67335 16.3898 9.14767 16.3667 9.426 16.06C9.70434 15.7532 9.6813 15.2789 9.37454 15.0006L8.36659 16.1114ZM9.37454 9.11144C9.6813 8.8331 9.70434 8.35879 9.426 8.05203C9.14767 7.74527 8.67335 7.72223 8.36659 8.00056L9.37454 9.11144ZM14.5886 15.0006C14.2818 15.2789 14.2588 15.7532 14.5371 16.06C14.8155 16.3667 15.2898 16.3898 15.5965 16.1114L14.5886 15.0006ZM15.5965 8.00056C15.2898 7.72223 14.8155 7.74527 14.5371 8.05203C14.2588 8.35879 14.2818 8.8331 14.5886 9.11144L15.5965 8.00056ZM16.8026 16.6944C16.5719 17.0384 16.6639 17.5043 17.0079 17.735C17.352 17.9656 17.8179 17.8737 18.0485 17.5296L16.8026 16.6944ZM18.0485 6.58238C17.8179 6.23832 17.352 6.14638 17.0079 6.37703C16.6639 6.60768 16.5719 7.07356 16.8026 7.41762L18.0485 6.58238ZM5.91457 17.5286C6.14519 17.8727 6.61107 17.9646 6.95515 17.734C7.29922 17.5034 7.39119 17.0375 7.16056 16.6934L5.91457 17.5286ZM7.16056 7.41758C7.39119 7.07351 7.29922 6.60762 6.95515 6.377C6.61107 6.14638 6.14519 6.23835 5.91457 6.58242L7.16056 7.41758ZM9.37454 15.0006C8.54394 14.2469 8.07027 13.1775 8.07027 12.056H6.57027C6.57027 13.6007 7.22264 15.0735 8.36659 16.1114L9.37454 15.0006ZM8.07027 12.056C8.07027 10.9345 8.54394 9.86508 9.37454 9.11144L8.36659 8.00056C7.22264 9.03852 6.57027 10.5113 6.57027 12.056H8.07027ZM15.5965 16.1114C16.7405 15.0735 17.3929 13.6007 17.3929 12.056H15.8929C15.8929 13.1775 15.4192 14.2469 14.5886 15.0006L15.5965 16.1114ZM17.3929 12.056C17.3929 10.5113 16.7405 9.03852 15.5965 8.00056L14.5886 9.11144C15.4192 9.86508 15.8929 10.9345 15.8929 12.056H17.3929ZM18.0485 17.5296C20.2684 14.2182 20.2684 9.89384 18.0485 6.58238L16.8026 7.41762C18.6838 10.2238 18.6838 13.8882 16.8026 16.6944L18.0485 17.5296ZM7.16056 16.6934C5.27981 13.8875 5.27981 10.2235 7.16056 7.41758L5.91457 6.58242C3.69514 9.89364 3.69514 14.2174 5.91457 17.5286L7.16056 16.6934Z" fill="#FF0000"/>
</svg>
