<svg width="24" height="24" viewBox="0 0 24 24" fill="none"
    xmlns="http://www.w3.org/2000/svg">
    <g clip-path="url(#clip0_4314_55)">
        <path d="M18.2725 8C18.2725 8.55228 17.8247 9 17.2725 9C16.7202 9 16.2725 8.55228 16.2725 8C16.2725 7.44772 16.7202 7 17.2725 7C17.8247 7 18.2725 7.44772 18.2725 8Z" fill="#080E42"/>
        <path d="M16.2725 10C16.2725 10.5523 15.8247 11 15.2725 11C14.7202 11 14.2725 10.5523 14.2725 10C14.2725 9.44772 14.7202 9 15.2725 9C15.8247 9 16.2725 9.44772 16.2725 10Z" fill="#080E42"/>
        <path d="M20.2725 10C20.2725 10.5523 19.8247 11 19.2725 11C18.7202 11 18.2725 10.5523 18.2725 10C18.2725 9.44772 18.7202 9 19.2725 9C19.8247 9 20.2725 9.44772 20.2725 10Z" fill="#080E42"/>
        <path d="M18.2725 12C18.2725 12.5523 17.8247 13 17.2725 13C16.7202 13 16.2725 12.5523 16.2725 12C16.2725 11.4477 16.7202 11 17.2725 11C17.8247 11 18.2725 11.4477 18.2725 12Z" fill="#080E42"/>
        <path d="M2.2724 11L1.52993 11.1061L1.53718 11.1568L1.55125 11.206L2.2724 11ZM8.69569 4.41035L9.0003 3.725V3.72499L8.69569 4.41035ZM9.22668 4.64635L8.92207 5.3317L9.22668 4.64635ZM11.2341 5.41942L11.0784 6.15307L11.2341 5.41942ZM15.3181 4.64635L15.0135 3.96099V3.96099L15.3181 4.64635ZM13.3107 5.41942L13.4664 6.15307L13.3107 5.41942ZM15.8323 16.5377L15.2015 16.9433V16.9433L15.8323 16.5377ZM8.56709 16.7638L9.19797 17.1694L9.19797 17.1694L8.56709 16.7638ZM3.7146 16.0477L2.99346 16.2537L3.7146 16.0477ZM21.6629 15.2662L20.9205 15.1601L21.6629 15.2662ZM22.496 9.43445L23.2385 9.54051L22.496 9.43445ZM8.94145 16.1815L8.31057 15.7759H8.31057L8.94145 16.1815ZM15.6033 16.1815L16.2342 15.7759V15.7759L15.6033 16.1815ZM15.8491 4.41035L16.1537 5.09571V5.09571L15.8491 4.41035ZM2.04875 9.43444L1.30628 9.54051L2.04875 9.43444ZM5.2724 9.25C4.85818 9.25 4.5224 9.58579 4.5224 10C4.5224 10.4142 4.85818 10.75 5.2724 10.75V9.25ZM9.2724 10.75C9.68661 10.75 10.0224 10.4142 10.0224 10C10.0224 9.58579 9.68661 9.25 9.2724 9.25V10.75ZM6.5224 12C6.5224 12.4142 6.85818 12.75 7.2724 12.75C7.68661 12.75 8.0224 12.4142 8.0224 12H6.5224ZM8.0224 8C8.0224 7.58579 7.68661 7.25 7.2724 7.25C6.85818 7.25 6.5224 7.58579 6.5224 8H8.0224ZM12.2724 5L11.5383 4.8462L11.536 4.85754L11.5339 4.86895L12.2724 5ZM12.645 3.22145L13.3791 3.37525L12.645 3.22145ZM16.0302 0.660613L16.7343 0.918804V0.918804L16.0302 0.660613ZM16.9766 0.258191C17.1191 -0.130704 16.9195 -0.561562 16.5306 -0.704157C16.1417 -0.846752 15.7108 -0.647086 15.5682 -0.258191L16.9766 0.258191ZM4.43574 15.8417L2.99354 10.794L1.55125 11.206L2.99346 16.2537L4.43574 15.8417ZM3.01486 10.8939L2.79121 9.32838L1.30628 9.54051L1.52993 11.1061L3.01486 10.8939ZM8.31057 15.7759L7.9362 16.3583L9.19797 17.1694L9.57234 16.587L8.31057 15.7759ZM16.4632 16.1321L16.2342 15.7759L14.9725 16.587L15.2015 16.9433L16.4632 16.1321ZM8.39109 5.09571L8.92207 5.3317L9.53128 3.96099L9.0003 3.725L8.39109 5.09571ZM15.6227 5.33171L16.1537 5.09571L15.5445 3.725L15.0135 3.96099L15.6227 5.33171ZM6.76202 4.75C7.32325 4.75 7.87823 4.86778 8.39109 5.09571L9.0003 3.72499C8.29565 3.41182 7.53312 3.25 6.76202 3.25V4.75ZM8.92207 5.3317C9.88921 5.76155 10.4704 6.024 11.0784 6.15307L11.3899 4.68577C10.9717 4.597 10.5566 4.41669 9.53128 3.96099L8.92207 5.3317ZM15.0135 3.96099C13.9882 4.41669 13.5731 4.597 13.1549 4.68577L13.4664 6.15307C14.0744 6.024 14.6556 5.76155 15.6227 5.3317L15.0135 3.96099ZM18.5108 17.25C17.6825 17.25 16.9111 16.8288 16.4632 16.1321L15.2015 16.9433C15.9253 18.0693 17.1721 18.75 18.5108 18.75V17.25ZM7.9362 16.3582C7.57891 16.914 6.96353 17.25 6.30281 17.25V18.75C7.47393 18.75 8.56468 18.1545 9.19797 17.1694L7.9362 16.3582ZM2.99346 16.2537C3.41562 17.7313 4.76613 18.75 6.30281 18.75V17.25C5.43584 17.25 4.67392 16.6753 4.43574 15.8417L2.99346 16.2537ZM20.9205 15.1601C20.7492 16.3593 19.7222 17.25 18.5108 17.25V18.75C20.4686 18.75 22.1285 17.3104 22.4054 15.3722L20.9205 15.1601ZM23.2385 9.54051C23.7128 6.22043 21.1366 3.25 17.7828 3.25V4.75C20.2237 4.75 22.0988 6.91195 21.7536 9.32838L23.2385 9.54051ZM9.57234 16.587C10.8359 14.6216 13.7089 14.6216 14.9725 16.587L16.2342 15.7759C14.3803 12.8919 10.1645 12.8919 8.31057 15.7759L9.57234 16.587ZM16.1537 5.09571C16.6666 4.86778 17.2215 4.75 17.7828 4.75V3.25C17.0117 3.25 16.2491 3.41182 15.5445 3.725L16.1537 5.09571ZM2.79121 9.32838C2.446 6.91195 4.32105 4.75 6.76202 4.75V3.25C3.40823 3.25 0.831986 6.22043 1.30628 9.54051L2.79121 9.32838ZM8.0224 12V8H6.5224V12H8.0224ZM13.0065 5.1538L13.3791 3.37525L11.911 3.06765L11.5383 4.8462L13.0065 5.1538ZM16.7343 0.918804L16.9766 0.258191L15.5682 -0.258191L15.326 0.402422L16.7343 0.918804ZM14.3728 2.56818C15.428 2.56818 16.3711 1.90953 16.7343 0.918804L15.326 0.402422C15.1794 0.802321 14.7987 1.06818 14.3728 1.06818V2.56818ZM13.3791 3.37525C13.4776 2.90499 13.8923 2.56818 14.3728 2.56818V1.06818C13.1825 1.06818 12.1551 1.9026 11.911 3.06765L13.3791 3.37525ZM21.7536 9.32838L20.9205 15.1601L22.4054 15.3722L23.2385 9.54051L21.7536 9.32838ZM5.2724 10.75H7.2724V9.25H5.2724V10.75ZM7.2724 10.75H9.2724V9.25H7.2724V10.75ZM11.0784 6.15307C11.4367 6.22914 11.8005 6.27058 12.1647 6.2774L12.1928 4.77767C11.9236 4.77263 11.6547 4.74199 11.3899 4.68577L11.0784 6.15307ZM12.1647 6.2774C12.6008 6.28557 13.0375 6.24413 13.4664 6.15307L13.1549 4.68577C12.8379 4.75307 12.5151 4.7837 12.1928 4.77767L12.1647 6.2774ZM11.5339 4.86895L11.4403 5.39649L12.9172 5.65858L13.0109 5.13105L11.5339 4.86895Z"/>
    </g>
    <defs>
        <clipPath id="clip0_4314_55">
            <rect width="24" height="24" fill="white"/>
        </clipPath>
    </defs>
</svg>
